# xmcd
#
# Track frame offsets:
#	150
#	11820
#	27457
#	44341
#	55726
#	72004
#	87385
#	106127
#	123604
#	137701
#	161821
#	176123
#	189072
#	202884
#	219724
#	233384
#	249152
#	265135
#	279643
#	294391
#
# Disc length: 4085 seconds
#
# Revision: 0
# Processed by: cddbd v1.5.2PL0 Copyright (c) Steve Scherf et al.
# Submitted via: audiograbber 1.83.01
#
DISCID=1c0ff314
DTITLE=Verschiedene -  Ranfichten cd1
DYEAR=1900
DGENRE=Country
TTITLE0=Die Randfichten - Die lustigen Holzhackerleit
TTITLE1=Die Randfichten - Lebt denn der alte Holzmichel noch
TTITLE2=Die Ladiner - Beuge Dich vor grauem Haar
TTITLE3=Toni - Ich bie e kloane Flugficht
TTITLE4=Hansi Hinterseer - Männer aus den Bergen
TTITLE5=Kastelruther Spatzen - Berg ohne Wiederkehr
TTITLE6=Andrea Berg - Partymix
TTITLE7=Stefanie Hertel - Erst Du, dann Du
TTITLE8=Die Flippers - Wetten Das
TTITLE9=Die Randfichten - Heja, Heja Ho
TTITLE10=Judith and Mel, Andy Borg - Gemeinsam
TTITLE11=Vreni and Rudi - Gemeinsam
TTITLE12=Florian Silbereisen - I blieb bei Volsmusik
TTITLE13=Monika Martin - Eine Liebe reicht für Zwei
TTITLE14=Roger Whittaker - Du warst mein schönster Traum
TTITLE15=Franz Bauer - Schau in meine Augen
TTITLE16=Andrea Jürgens - Komm lass uns reden
TTITLE17=Gaby Albrecht - Das Salz im Meer
TTITLE18=G.G. Anderson - Goodbye Marie
TTITLE19=Die Randfichten - Ich was net ei, noch aus
EXTD=
EXTT0=
EXTT1=
EXTT2=
EXTT3=
EXTT4=
EXTT5=
EXTT6=
EXTT7=
EXTT8=
EXTT9=
EXTT10=
EXTT11=
EXTT12=
EXTT13=
EXTT14=
EXTT15=
EXTT16=
EXTT17=
EXTT18=
EXTT19=
PLAYORDER=
